<?xml version="1.0" encoding="UTF-8"?>
<!DOCTYPE svg PUBLIC "-//W3C//DTD SVG 1.1//EN" "http://www.w3.org/Graphics/SVG/1.1/DTD/svg11.dtd">
<svg xmlns="http://www.w3.org/2000/svg" version="1.1" width="599px" height="600px" style="shape-rendering:geometricPrecision; text-rendering:geometricPrecision; image-rendering:optimizeQuality; fill-rule:evenodd; clip-rule:evenodd" xmlns:xlink="http://www.w3.org/1999/xlink">
<g><path style="opacity:1" fill="#84cc16" d="M 303.5,0.5 C 338.146,2.71748 361.313,20.0508 373,52.5C 374.173,57.7052 375.34,62.8719 376.5,68C 448.947,89.4529 503.78,132.953 541,198.5C 559.318,232.45 570.151,268.617 573.5,307C 571.42,317.541 565.086,321.874 554.5,320C 548.513,317.538 545.346,313.038 545,306.5C 533.934,215.15 487.434,148.983 405.5,108C 395.132,103.315 384.465,99.4816 373.5,96.5C 372.833,96.8333 372.167,97.1667 371.5,97.5C 352.941,135.611 322.941,149.777 281.5,140C 246.344,125.207 230.511,98.7074 234,60.5C 240.12,30.4201 257.954,11.2535 287.5,3C 292.972,2.13293 298.306,1.29959 303.5,0.5 Z M 295.5,29.5 C 322.169,26.7348 339.336,38.0681 347,63.5C 349.806,90.4179 338.306,107.585 312.5,115C 285.983,117.502 269.15,106.002 262,80.5C 259.418,54.282 270.585,37.282 295.5,29.5 Z"/></g>
<g><path style="opacity:1" fill="#84cc16" d="M 156.5,103.5 C 169.615,104.077 174.781,110.743 172,123.5C 170.542,125.96 168.709,128.127 166.5,130C 99.5561,178.208 65.2227,243.874 63.5,327C 63.1073,346.466 65.2739,365.632 70,384.5C 106.909,380.962 133.576,395.962 150,429.5C 160.884,466.186 150.718,495.353 119.5,517C 84.2918,534.049 53.4585,528.216 27,499.5C 5.57141,467.875 6.90474,436.875 31,406.5C 35.7296,402.934 39.8963,398.934 43.5,394.5C 20.8331,290.02 47.8331,200.854 124.5,127C 134.528,118.116 145.195,110.283 156.5,103.5 Z M 73.5,412.5 C 98.9414,409.496 116.108,419.83 125,443.5C 129.759,469.043 120.259,486.876 96.5,497C 68.805,502.409 50.305,491.909 41,465.5C 37.5776,439 48.4109,421.333 73.5,412.5 Z"/></g>
<g><path style="opacity:1" fill="#84cc16" d="M 297.5,203.5 C 351.084,203.363 390.584,226.696 416,273.5C 438.645,328.141 429.479,376.641 388.5,419C 349.084,452.281 305.084,459.947 256.5,442C 208.179,419.064 182.846,380.73 180.5,327C 182.6,278.444 204.6,242.111 246.5,218C 262.722,209.976 279.722,205.142 297.5,203.5 Z M 299.5,231.5 C 350.715,232.567 383.548,257.567 398,306.5C 405.346,352.295 389.513,387.462 350.5,412C 312.756,429.988 277.09,426.655 243.5,402C 211.32,372.782 201.487,337.282 214,295.5C 229.761,257.046 258.261,235.713 299.5,231.5 Z"/></g>
<g><path style="opacity:1" fill="#84cc16" d="M 524.5,383.5 C 560.763,385.608 584.263,403.942 595,438.5C 601.24,480.242 584.74,508.742 545.5,524C 527.965,528.385 510.965,526.885 494.5,519.5C 416.813,590.586 326.813,612.42 224.5,585C 212.185,581.118 200.185,576.451 188.5,571C 181.494,566.096 179.661,559.596 183,551.5C 186.072,547.214 190.239,544.881 195.5,544.5C 216.168,553.33 237.501,560.163 259.5,565C 340.6,578.071 411.266,557.071 471.5,502C 451.354,475.286 449.188,447.119 465,417.5C 479.496,396.673 499.33,385.339 524.5,383.5 Z M 516.5,412.5 C 542.597,409.788 559.764,420.788 568,445.5C 571.626,473.11 560.126,490.61 533.5,498C 506.987,500.504 490.154,489.004 483,463.5C 480.683,437.433 491.849,420.433 516.5,412.5 Z"/></g>
</svg>
